<svg xmlns="http://www.w3.org/2000/svg" width="400" height="400" viewBox="0 0 200 200">
  <defs>
    <path id="ring" d="M100,100 m-72,0 a72,72 0 1,1 144,0 a72,72 0 1,1 -144,0"/>
    <path id="ringCcw" d="M100,100 m-58,0 a58,58 0 1,0 116,0 a58,58 0 1,0 -116,0"/>
    <radialGradient id="bg" cx="50%" cy="50%" r="50%">
      <stop offset="0%" stop-color="#242424"/>
      <stop offset="78%" stop-color="#1A1A1A"/>
      <stop offset="100%" stop-color="#111111"/>
    </radialGradient>
  </defs>
  <circle cx="100" cy="100" r="98" fill="url(#bg)"/>
  <circle cx="100" cy="100" r="97" fill="none" stroke="#7BC142" stroke-width="2.5"/>
  <circle cx="100" cy="100" r="84" fill="none" stroke="#333333" stroke-width="1"/>
  <text font-family="Segoe UI, Arial, sans-serif" font-size="17.5" font-weight="700"
        letter-spacing="3.4" fill="#7BC142" text-anchor="middle">
    <textPath href="#ring" startOffset="25%">DRONE MAPPING MX</textPath>
  </text>
  <text font-family="Segoe UI, Arial, sans-serif" font-size="14" font-weight="600"
        letter-spacing="3" fill="#B8B8B8" text-anchor="middle">
    <textPath href="#ringCcw" startOffset="25%">TOPOGRAF&#205;A A&#201;REA</textPath>
  </text>
  <g stroke="#FFFFFF" stroke-width="4" fill="none" stroke-linecap="round">
    <circle cx="100" cy="100" r="10.5"/>
    <line x1="79" y1="79" x2="91.5" y2="91.5"/>
    <line x1="121" y1="79" x2="108.5" y2="91.5"/>
    <line x1="79" y1="121" x2="91.5" y2="108.5"/>
    <line x1="121" y1="121" x2="108.5" y2="108.5"/>
    <circle cx="73" cy="73" r="9"/>
    <circle cx="127" cy="73" r="9"/>
    <circle cx="73" cy="127" r="9"/>
    <circle cx="127" cy="127" r="9"/>
  </g>
</svg>
