<svg xmlns="http://www.w3.org/2000/svg" viewBox="0 0 48 48" role="img" aria-label="Photogrammetric point cloud density — field notation glyph">
  <g fill="currentColor" stroke="none">
    <circle cx="8" cy="10" r="0.7" fill-opacity="0.35"/>
    <circle cx="13" cy="7" r="0.85" fill-opacity="0.55"/>
    <circle cx="18" cy="6" r="1"/>
    <circle cx="24" cy="5.5" r="1.15"/>
    <circle cx="30" cy="6" r="1"/>
    <circle cx="35" cy="7" r="0.85" fill-opacity="0.55"/>
    <circle cx="40" cy="10" r="0.7" fill-opacity="0.35"/>
    <circle cx="7" cy="15" r="0.85" fill-opacity="0.55"/>
    <circle cx="12" cy="13" r="1"/>
    <circle cx="17" cy="12" r="1.15"/>
    <circle cx="22" cy="11.5" r="1.25"/>
    <circle cx="27" cy="11.5" r="1.25"/>
    <circle cx="32" cy="12" r="1.15"/>
    <circle cx="37" cy="13" r="1"/>
    <circle cx="41" cy="15" r="0.85" fill-opacity="0.55"/>
    <circle cx="6" cy="20" r="0.9"/>
    <circle cx="11" cy="19" r="1.1"/>
    <circle cx="16" cy="18" r="1.25"/>
    <circle cx="21" cy="17.5" r="1.35"/>
    <circle cx="26" cy="17.5" r="1.35"/>
    <circle cx="31" cy="18" r="1.25"/>
    <circle cx="36" cy="19" r="1.1"/>
    <circle cx="42" cy="20" r="0.9"/>
    <circle cx="7" cy="25" r="0.95"/>
    <circle cx="12" cy="24" r="1.15"/>
    <circle cx="17" cy="23.5" r="1.25"/>
    <circle cx="22" cy="23" r="1.35"/>
    <circle cx="27" cy="23" r="1.35"/>
    <circle cx="32" cy="23.5" r="1.25"/>
    <circle cx="37" cy="24" r="1.15"/>
    <circle cx="41" cy="25" r="0.95"/>
    <circle cx="9" cy="30" r="0.9"/>
    <circle cx="14" cy="29" r="1.1"/>
    <circle cx="19" cy="28.5" r="1.2"/>
    <circle cx="24" cy="28" r="1.3"/>
    <circle cx="29" cy="28.5" r="1.2"/>
    <circle cx="34" cy="29" r="1.1"/>
    <circle cx="39" cy="30" r="0.9"/>
    <circle cx="11" cy="35" r="0.85" fill-opacity="0.6"/>
    <circle cx="16" cy="34.5" r="1"/>
    <circle cx="22" cy="34" r="1.1"/>
    <circle cx="28" cy="34" r="1.1"/>
    <circle cx="33" cy="34.5" r="1"/>
    <circle cx="37" cy="35" r="0.85" fill-opacity="0.6"/>
    <circle cx="15" cy="40" r="0.75" fill-opacity="0.45"/>
    <circle cx="21" cy="39.5" r="0.85" fill-opacity="0.55"/>
    <circle cx="27" cy="39.5" r="0.85" fill-opacity="0.55"/>
    <circle cx="33" cy="40" r="0.75" fill-opacity="0.45"/>
    <circle cx="24" cy="44" r="0.7" fill-opacity="0.3"/>
  </g>
  <g stroke="currentColor" stroke-width="0.5" stroke-opacity="0.5" fill="none" stroke-linecap="round">
    <line x1="3" y1="24" x2="5" y2="24"/>
    <line x1="4" y1="23" x2="4" y2="25"/>
    <line x1="43" y1="44" x2="45" y2="44"/>
    <line x1="44" y1="43" x2="44" y2="45"/>
  </g>
</svg>
